<mxfile host="Electron" agent="Mozilla/5.0 (Windows NT 10.0; Win64; x64) AppleWebKit/537.36 (KHTML, like Gecko) draw.io/27.0.9 Chrome/134.0.6998.205 Electron/35.4.0 Safari/537.36" version="27.0.9">
  <diagram name="第 1 页" id="U9q04wdCwG0ZD9SetS6C">
    <mxGraphModel dx="3178" dy="1848" grid="1" gridSize="10" guides="1" tooltips="1" connect="1" arrows="1" fold="1" page="1" pageScale="1" pageWidth="1169" pageHeight="1654" math="0" shadow="0">
      <root>
        <mxCell id="0" />
        <mxCell id="1" parent="0" />
        <mxCell id="RoKykkbpF6MTI8URKZML-282" value="" style="rounded=0;whiteSpace=wrap;html=1;fillColor=#dae8fc;strokeColor=#6c8ebf;" vertex="1" parent="1">
          <mxGeometry x="380" y="67" width="1300" height="603" as="geometry" />
        </mxCell>
        <mxCell id="RoKykkbpF6MTI8URKZML-245" style="edgeStyle=orthogonalEdgeStyle;rounded=0;orthogonalLoop=1;jettySize=auto;html=1;entryX=0;entryY=0.5;entryDx=0;entryDy=0;" edge="1" parent="1" source="RoKykkbpF6MTI8URKZML-4" target="RoKykkbpF6MTI8URKZML-244">
          <mxGeometry relative="1" as="geometry" />
        </mxCell>
        <mxCell id="RoKykkbpF6MTI8URKZML-259" style="edgeStyle=orthogonalEdgeStyle;rounded=0;orthogonalLoop=1;jettySize=auto;html=1;entryX=0;entryY=0.5;entryDx=0;entryDy=0;" edge="1" parent="1" source="RoKykkbpF6MTI8URKZML-4" target="RoKykkbpF6MTI8URKZML-241">
          <mxGeometry relative="1" as="geometry" />
        </mxCell>
        <mxCell id="RoKykkbpF6MTI8URKZML-260" style="edgeStyle=orthogonalEdgeStyle;rounded=0;orthogonalLoop=1;jettySize=auto;html=1;entryX=0;entryY=0.5;entryDx=0;entryDy=0;" edge="1" parent="1" source="RoKykkbpF6MTI8URKZML-4" target="RoKykkbpF6MTI8URKZML-242">
          <mxGeometry relative="1" as="geometry" />
        </mxCell>
        <mxCell id="RoKykkbpF6MTI8URKZML-4" value="&lt;h2&gt;device_regitser&lt;/h2&gt;" style="rounded=1;whiteSpace=wrap;html=1;fillColor=#dae8fc;strokeColor=#6c8ebf;fontStyle=1" vertex="1" parent="1">
          <mxGeometry x="390" y="157" width="160" height="40" as="geometry" />
        </mxCell>
        <mxCell id="RoKykkbpF6MTI8URKZML-239" value="&lt;h1&gt;&lt;b style=&quot;&quot;&gt;&lt;font style=&quot;font-size: 26px;&quot;&gt;设备注册流程及匹配机制&lt;/font&gt;&lt;/b&gt;&lt;/h1&gt;" style="rounded=0;whiteSpace=wrap;html=1;" vertex="1" parent="1">
          <mxGeometry x="390" y="102" width="1250" height="39" as="geometry" />
        </mxCell>
        <mxCell id="RoKykkbpF6MTI8URKZML-249" style="edgeStyle=orthogonalEdgeStyle;rounded=0;orthogonalLoop=1;jettySize=auto;html=1;" edge="1" parent="1" source="RoKykkbpF6MTI8URKZML-241" target="RoKykkbpF6MTI8URKZML-246">
          <mxGeometry relative="1" as="geometry" />
        </mxCell>
        <mxCell id="RoKykkbpF6MTI8URKZML-241" value="&lt;h2&gt;device_initialize&lt;/h2&gt;" style="rounded=1;whiteSpace=wrap;html=1;fillColor=#dae8fc;strokeColor=#6c8ebf;fontStyle=1" vertex="1" parent="1">
          <mxGeometry x="490" y="207" width="160" height="40" as="geometry" />
        </mxCell>
        <mxCell id="RoKykkbpF6MTI8URKZML-250" style="edgeStyle=orthogonalEdgeStyle;rounded=0;orthogonalLoop=1;jettySize=auto;html=1;entryX=0;entryY=0.5;entryDx=0;entryDy=0;" edge="1" parent="1" source="RoKykkbpF6MTI8URKZML-242" target="RoKykkbpF6MTI8URKZML-247">
          <mxGeometry relative="1" as="geometry" />
        </mxCell>
        <mxCell id="RoKykkbpF6MTI8URKZML-261" style="edgeStyle=orthogonalEdgeStyle;rounded=0;orthogonalLoop=1;jettySize=auto;html=1;entryX=0;entryY=0.5;entryDx=0;entryDy=0;" edge="1" parent="1" source="RoKykkbpF6MTI8URKZML-242" target="RoKykkbpF6MTI8URKZML-243">
          <mxGeometry relative="1" as="geometry" />
        </mxCell>
        <mxCell id="RoKykkbpF6MTI8URKZML-262" style="edgeStyle=orthogonalEdgeStyle;rounded=0;orthogonalLoop=1;jettySize=auto;html=1;entryX=0;entryY=0.5;entryDx=0;entryDy=0;" edge="1" parent="1" source="RoKykkbpF6MTI8URKZML-242" target="RoKykkbpF6MTI8URKZML-252">
          <mxGeometry relative="1" as="geometry" />
        </mxCell>
        <mxCell id="RoKykkbpF6MTI8URKZML-242" value="&lt;h2&gt;devide_add&lt;/h2&gt;" style="rounded=1;whiteSpace=wrap;html=1;fillColor=#dae8fc;strokeColor=#6c8ebf;fontStyle=1" vertex="1" parent="1">
          <mxGeometry x="490" y="257" width="160" height="40" as="geometry" />
        </mxCell>
        <mxCell id="RoKykkbpF6MTI8URKZML-251" style="edgeStyle=orthogonalEdgeStyle;rounded=0;orthogonalLoop=1;jettySize=auto;html=1;entryX=0;entryY=0.5;entryDx=0;entryDy=0;" edge="1" parent="1" source="RoKykkbpF6MTI8URKZML-243" target="RoKykkbpF6MTI8URKZML-248">
          <mxGeometry relative="1" as="geometry" />
        </mxCell>
        <mxCell id="RoKykkbpF6MTI8URKZML-243" value="&lt;h2&gt;bus_add_device&lt;/h2&gt;" style="rounded=1;whiteSpace=wrap;html=1;fillColor=#dae8fc;strokeColor=#6c8ebf;fontStyle=1" vertex="1" parent="1">
          <mxGeometry x="590" y="307" width="170" height="40" as="geometry" />
        </mxCell>
        <mxCell id="RoKykkbpF6MTI8URKZML-244" value="&lt;h2&gt;&lt;font style=&quot;font-size: 20px;&quot;&gt;设备注册&lt;/font&gt;&lt;/h2&gt;" style="rounded=1;whiteSpace=wrap;html=1;fillColor=#fff2cc;strokeColor=#d6b656;fontStyle=1" vertex="1" parent="1">
          <mxGeometry x="1440" y="157" width="200" height="40" as="geometry" />
        </mxCell>
        <mxCell id="RoKykkbpF6MTI8URKZML-246" value="&lt;h2&gt;&lt;span style=&quot;font-size: 20px;&quot;&gt;设备初始化&lt;/span&gt;&lt;/h2&gt;" style="rounded=1;whiteSpace=wrap;html=1;fillColor=#fff2cc;strokeColor=#d6b656;fontStyle=1" vertex="1" parent="1">
          <mxGeometry x="1440" y="207" width="200" height="40" as="geometry" />
        </mxCell>
        <mxCell id="RoKykkbpF6MTI8URKZML-247" value="&lt;h2&gt;&lt;span style=&quot;font-size: 20px;&quot;&gt;设备添加&lt;/span&gt;&lt;/h2&gt;" style="rounded=1;whiteSpace=wrap;html=1;fillColor=#fff2cc;strokeColor=#d6b656;fontStyle=1" vertex="1" parent="1">
          <mxGeometry x="1440" y="257" width="200" height="40" as="geometry" />
        </mxCell>
        <mxCell id="RoKykkbpF6MTI8URKZML-248" value="&lt;h2&gt;&lt;span style=&quot;font-size: 20px;&quot;&gt;设备与总线进行关联&lt;/span&gt;&lt;/h2&gt;" style="rounded=1;whiteSpace=wrap;html=1;fillColor=#fff2cc;strokeColor=#d6b656;fontStyle=1" vertex="1" parent="1">
          <mxGeometry x="1440" y="307" width="200" height="40" as="geometry" />
        </mxCell>
        <mxCell id="RoKykkbpF6MTI8URKZML-276" style="edgeStyle=orthogonalEdgeStyle;rounded=0;orthogonalLoop=1;jettySize=auto;html=1;entryX=0;entryY=0.5;entryDx=0;entryDy=0;" edge="1" parent="1" source="RoKykkbpF6MTI8URKZML-252" target="RoKykkbpF6MTI8URKZML-254">
          <mxGeometry relative="1" as="geometry" />
        </mxCell>
        <mxCell id="RoKykkbpF6MTI8URKZML-252" value="&lt;h2&gt;bus_probe_device&lt;/h2&gt;" style="rounded=1;whiteSpace=wrap;html=1;fillColor=#dae8fc;strokeColor=#6c8ebf;fontStyle=1" vertex="1" parent="1">
          <mxGeometry x="590" y="357" width="170" height="40" as="geometry" />
        </mxCell>
        <mxCell id="RoKykkbpF6MTI8URKZML-265" style="edgeStyle=orthogonalEdgeStyle;rounded=0;orthogonalLoop=1;jettySize=auto;html=1;entryX=0;entryY=0.5;entryDx=0;entryDy=0;" edge="1" parent="1" source="RoKykkbpF6MTI8URKZML-254" target="RoKykkbpF6MTI8URKZML-255">
          <mxGeometry relative="1" as="geometry" />
        </mxCell>
        <mxCell id="RoKykkbpF6MTI8URKZML-254" value="&lt;h2&gt;device_initial_probe&lt;/h2&gt;" style="rounded=1;whiteSpace=wrap;html=1;fillColor=#dae8fc;strokeColor=#6c8ebf;fontStyle=1" vertex="1" parent="1">
          <mxGeometry x="720" y="407" width="190" height="40" as="geometry" />
        </mxCell>
        <mxCell id="RoKykkbpF6MTI8URKZML-266" style="edgeStyle=orthogonalEdgeStyle;rounded=0;orthogonalLoop=1;jettySize=auto;html=1;entryX=0;entryY=0.5;entryDx=0;entryDy=0;" edge="1" parent="1" source="RoKykkbpF6MTI8URKZML-255" target="RoKykkbpF6MTI8URKZML-256">
          <mxGeometry relative="1" as="geometry" />
        </mxCell>
        <mxCell id="RoKykkbpF6MTI8URKZML-255" value="&lt;h2&gt;__device_attach&lt;/h2&gt;" style="rounded=1;whiteSpace=wrap;html=1;fillColor=#dae8fc;strokeColor=#6c8ebf;fontStyle=1" vertex="1" parent="1">
          <mxGeometry x="834" y="457" width="180" height="40" as="geometry" />
        </mxCell>
        <mxCell id="RoKykkbpF6MTI8URKZML-267" style="edgeStyle=orthogonalEdgeStyle;rounded=0;orthogonalLoop=1;jettySize=auto;html=1;entryX=0;entryY=0.5;entryDx=0;entryDy=0;" edge="1" parent="1" source="RoKykkbpF6MTI8URKZML-256" target="RoKykkbpF6MTI8URKZML-257">
          <mxGeometry relative="1" as="geometry" />
        </mxCell>
        <mxCell id="RoKykkbpF6MTI8URKZML-256" value="&lt;h2&gt;bus_for_each_drv&lt;/h2&gt;" style="rounded=1;whiteSpace=wrap;html=1;fillColor=#dae8fc;strokeColor=#6c8ebf;fontStyle=1" vertex="1" parent="1">
          <mxGeometry x="950" y="507" width="180" height="40" as="geometry" />
        </mxCell>
        <mxCell id="RoKykkbpF6MTI8URKZML-268" style="edgeStyle=orthogonalEdgeStyle;rounded=0;orthogonalLoop=1;jettySize=auto;html=1;entryX=0;entryY=0.5;entryDx=0;entryDy=0;" edge="1" parent="1" source="RoKykkbpF6MTI8URKZML-257" target="RoKykkbpF6MTI8URKZML-258">
          <mxGeometry relative="1" as="geometry" />
        </mxCell>
        <mxCell id="RoKykkbpF6MTI8URKZML-257" value="&lt;h2&gt;__device_attach_driver&lt;/h2&gt;" style="rounded=1;whiteSpace=wrap;html=1;fillColor=#dae8fc;strokeColor=#6c8ebf;fontStyle=1" vertex="1" parent="1">
          <mxGeometry x="1060" y="554" width="216" height="40" as="geometry" />
        </mxCell>
        <mxCell id="RoKykkbpF6MTI8URKZML-330" style="edgeStyle=orthogonalEdgeStyle;rounded=0;orthogonalLoop=1;jettySize=auto;html=1;entryX=0.75;entryY=0;entryDx=0;entryDy=0;shape=flexArrow;" edge="1" parent="1" source="RoKykkbpF6MTI8URKZML-258" target="RoKykkbpF6MTI8URKZML-277">
          <mxGeometry relative="1" as="geometry" />
        </mxCell>
        <mxCell id="RoKykkbpF6MTI8URKZML-258" value="&lt;h2&gt;driver_match_device&lt;/h2&gt;" style="rounded=1;whiteSpace=wrap;html=1;fillColor=#dae8fc;strokeColor=#6c8ebf;fontStyle=1" vertex="1" parent="1">
          <mxGeometry x="1190" y="607" width="202" height="40" as="geometry" />
        </mxCell>
        <mxCell id="RoKykkbpF6MTI8URKZML-269" value="&lt;h2&gt;&lt;span style=&quot;font-size: 20px;&quot;&gt;总线探测设备&lt;/span&gt;&lt;/h2&gt;" style="rounded=1;whiteSpace=wrap;html=1;fillColor=#fff2cc;strokeColor=#d6b656;fontStyle=1" vertex="1" parent="1">
          <mxGeometry x="1440" y="357" width="200" height="40" as="geometry" />
        </mxCell>
        <mxCell id="RoKykkbpF6MTI8URKZML-271" value="&lt;h2&gt;&lt;span style=&quot;font-size: 20px; font-weight: normal;&quot;&gt;设备初始探测&lt;/span&gt;&lt;/h2&gt;" style="rounded=1;whiteSpace=wrap;html=1;fillColor=#fff2cc;strokeColor=#d6b656;fontStyle=1" vertex="1" parent="1">
          <mxGeometry x="1440" y="407" width="200" height="40" as="geometry" />
        </mxCell>
        <mxCell id="RoKykkbpF6MTI8URKZML-272" value="&lt;h2&gt;&lt;span style=&quot;font-size: 20px; font-weight: normal;&quot;&gt;设备绑定处理&lt;/span&gt;&lt;/h2&gt;" style="rounded=1;whiteSpace=wrap;html=1;fillColor=#fff2cc;strokeColor=#d6b656;fontStyle=1" vertex="1" parent="1">
          <mxGeometry x="1440" y="457" width="200" height="40" as="geometry" />
        </mxCell>
        <mxCell id="RoKykkbpF6MTI8URKZML-273" value="&lt;h2&gt;&lt;span style=&quot;font-size: 20px;&quot;&gt;&lt;font style=&quot;color: light-dark(rgb(255, 0, 0), rgb(255, 255, 255));&quot;&gt;遍历总线上的驱动&lt;/font&gt;&lt;/span&gt;&lt;/h2&gt;" style="rounded=1;whiteSpace=wrap;html=1;fillColor=#fff2cc;strokeColor=#d6b656;fontStyle=1" vertex="1" parent="1">
          <mxGeometry x="1440" y="507" width="200" height="40" as="geometry" />
        </mxCell>
        <mxCell id="RoKykkbpF6MTI8URKZML-274" value="&lt;h2&gt;&lt;span style=&quot;font-size: 20px; font-weight: normal;&quot;&gt;设备与驱动绑定&lt;/span&gt;&lt;/h2&gt;" style="rounded=1;whiteSpace=wrap;html=1;fillColor=#fff2cc;strokeColor=#d6b656;fontStyle=1" vertex="1" parent="1">
          <mxGeometry x="1440" y="554" width="200" height="40" as="geometry" />
        </mxCell>
        <mxCell id="RoKykkbpF6MTI8URKZML-275" value="&lt;h2&gt;&lt;span style=&quot;font-size: 20px; font-weight: normal;&quot;&gt;驱动匹配设备&lt;/span&gt;&lt;/h2&gt;" style="rounded=1;whiteSpace=wrap;html=1;fillColor=#fff2cc;strokeColor=#d6b656;fontStyle=1" vertex="1" parent="1">
          <mxGeometry x="1440" y="607" width="200" height="40" as="geometry" />
        </mxCell>
        <mxCell id="RoKykkbpF6MTI8URKZML-277" value="" style="shape=image;verticalLabelPosition=bottom;labelBackgroundColor=default;verticalAlign=top;aspect=fixed;imageAspect=0;image=data:image/png,iVBORw0KGgoAAAANSUhEUgAAAx4AAACQCAIAAAAJCipcAAAgAElEQVR4Ae2d91sbSbb33//FnnRndmb2vXe9Od3XG8e7O7vrGa/jzNiesccYY5tgW9iInKNJIokgEDnnLKGEQCQhECBAIKnJQSRhg354R1RTNJJoBJYxto+ffvxUd1edOv1pdevLqVOl/2M0ELABASAABIAAEAACQAAI2IXA/7GLFTACBIAAEAACQAAIAAEgYDQQIK0gaAcEgAAQAAJAAAgAAbsRAGllN5Qg1YEAEAACQAAIAAEgANIKpBUQAAJAAAgAASAABOxGAKSV3VCCTgcCQAAIAAEgAASAAEgrkFZAAAgAASAABIAAELAbAZBWdkMJOh0IAAEgAASAABAAAgeWVrNTgxfvuLa28ajseIKGy3fd9HMj1IN2Lz9f0Tp7+z0ODrG75cMZzC8r/J7B3FjVHq65vVr5REZGJiXYyxrYAQJAAAgAASAABF6EwIGlVVlN2XVXxvqyhtprQHRMcFws9YiNZUWv9IKjy9z0kC3115c1txjMH9SVLZWPoI6Lj396bhbqqLml/sq9B0fQqVkXs1NDF++4Stv56HhcGjsgOsasztHvHhM3jv7CoUcgAASAABAAAgeWVg/9gxI4aVRwCzOqS05uQkkT9aCN5QNJK6OBeL6q3VzT2Wj8pVYbVnVecHRRDXWgXl6VtCqvKfvWzf3ZChk5Oyaa5pi48VI/AGAcCAABIAAEgIBVAgeTVuPq3guOLnJ5K9VWVX3FVRfGmn6cetDGskJxgKiVjTaPplpGHveely/uq7ml/qv7ryBq9SggODFjR+nGpbEDIWoFv90EBIAAEAACQODVETiYtMotznNwZ5rFjZ4Eh8ampmCRsW9Bp+nzDI/4xvkRMyycL2ygDgi6+gZk5mdHJSd+4/zonqePuJXM6Bod7r7g6IK2J8Gh1C4eB4dEJSXiIzpN35b4k6Aj4+oe36ioqy6M2489S6pKsOeLc8MXHF3qedVPgkO/dn74w/9joz3YSHNL/T0v30tObtdd3aNTkpYX1PgUKmyu6RzcmfllBfh4c0v9N86PZB1CJ6bPdVd3VnoqVWvKOoSMwJCvnR/efuyZmZ+Ng0xGA0HTl7Sd/8Av8Ov7D938AmUdQtwXLmjGTEpX0SvFR+LS2MGxsYUVxd+5PXZw9yyrKcOnjAaitKr0LtPnq/sPnL39mvh1+NTGqjYjj/v9I+bFOy63GMz80kJ8ymgg9nWDWhmVUdQqv7TguivDwd2zvLbcsg4cAQJAAAgAASDwRhI4mLRyYvpw8rOpIAht/wVHl85uEfUgfflRYLCrb4BEymtuqXcPCjWTVvc8fSRSHqHp4+Rxr9x7MDM5aDQQywtqiZQnkfKCY2PNpFVxZfF1V8bz7Vzy8try667uz7cGyFYWRr9nMEPj4xUKaT2v+hvnR1X1Fcg3JK28IyIHlLJxtdw3KsrVNwCdGlfLL95xzSvNVyrb22Utjk+8kjPTza5ILpdccHTRjivwcSStQuLj2mQtNY1VV10YOcV56KxmrPeSk1t2UW53t5gnaHBwZxaUFe3b1+BAx8U7LrnFef39bVkFOZed3EZUXbg7VMgtyXdw98R60Wgg4tLYjk+8Ejhpsk5hVmHOBUeX7m4xqtzAr7nqwqhrqu7uFpdWl16+69anIDVZXZMJDk/QMKCU1fOqL9/dGd61xQ0zr7AbyZkZPT2StJysC44uPT2k2LWsDEeAABAAAkAACBx/Ahur2sa60vCwEG9vL1Z8zIBiz++1A0grpbL9gqOL2Rd8flnhzYdPsLLZF83s1BA1qlTXVG0mreLSyADY8xXtZSc3kaSZajM9N8tMWqExSsW2SvCJjIxhkxYEosav7z9cXSRjTlkFOVg/IWmFIzco5Wt+xpRNL2ptvuzkhuf9jat7BwdkVB+MBoKVnsoI3DVRsbml/oKjyyShRDU5+dkP/AJReX1Jgyyj3eyiPI/QMFSm6SuRk84MC0fVjAbCPSiUzeXgXVS4a6F049LYTkwfLLYYgSFpOWSi/crCqH5+ZwqnR2hYdhEp/lKyMrwjI7FxZX87Vo22uIEb4oKZG/e8fDN3K3JcEwpAAAgAASAABF4LAsWF3JRklmaka3FG1dXOCwoMGLGQB+hCDiCt2FyOi4+/2fW7+PinZmeaHaTZRdnfOk0fqtO7e4agq28ADvb88NvRnmERAnEj1ZqltDIaCGdvv6yCHBTcunzXDQ8jFlYUU6cT8oWmMTtkDUkrHNEhNH2uvgHEllfjavkFR5enyUlN/LoBpYw6eIfari9rrrsyKnYPcpnS2O+6YVerGipvPnyCdjfXdLkl+d8zmFfuPbhy78ElJzfsFU1ffk+fUqNlrIzU4NhdczAHB2QmpTu8K5QVl8b2j47GboQnJOB1GZbmR6OSEq+7uiM3Lt5xwfZrGquu3HuQVZAjkjRTB0aNBmJfN3Bf1IKZG/7R0fHpbGoFKAMBIAAEgAAQeI0ITGoUIcFBa9vBGqOBaG9tLCnaNY6HL8dWafV8VXvz4ZPCcnIkC7VHOskyqIOtWxZUQ6aJdUjEGA2E2QxBV9+A3O1xNMu2RgNhVVqZwlFbmk/U2nzl3gMcpsovK7h4xwUpiSv3Hly+64bXR0DSaq9RqiZ+HUqN+sHVb93czdL2JVLexTuuZgtGmM0QrG6o/O7BY3QJDfyaK3fdBKJGzVivZqyXzeVgaWU0EHv15R0RecnJ5DAWZGarKqRmZ1oqXbOpeREJCREJ5JJXMewUJ6aPoleK3HAPCsXS6vmKNqswx9nb77KT2wVHF1ffgNkp0zis0UDs64bV22TmRkB0TFwaSCtYnBYIAAEgAAReVwJiQW1pkSmIY8tmq7Tq6BJdcHSZ0JHRJmQ6I497l+ljSze4zr5Rq0NIK2W/aaRyUtcfm8oOjNkJ7RRWFN/z8kVKAv2Px7nopRXydnNNR2j6vCMj3YN2jf2FsVi+UVH4ilDBMmp14wEZtQqJiwuJj8P1c0vyqdJqr778nj6NTkmmOo/SzlD9jVXtzUceZkoXJTmZRa0iEklpddVlV6TNMywCSyvs2/MV7YBSdovBxON39G7ghmYFkFZmQGAXCAABIAAEXmsCjXWljXWlNl6CrdIqhp3yJITMEEKm0Sy53JJ8G3tC1WanBqlJzZa5VoeQVptrupuPPGoaq75nMOt51dgfgaiRuubThK5PqWxHZ2mklbK/vbCiGBupaay6+cgD7y4vqK/ce4CTtPBxy1wrt+1cq4iEBKrcCYyJxdKKpq9ETnpQzM7in8OqznF1L+6us9ukdAltPz6CCmZJTozAEDxc+92Dx8WV5HWt6ce/e/AYSyu+sJ468BqZlIAnXdK7YTQQ4+rezPxsPMKL3aDG2CBqZXabYBcIAAEgAAReLwL2j1qt6ce/cX5U3VBJBYFmyVG/76lnacqPArZnCArq3YNCzNLYrUor7bhC2s6XtvOD40y6BJXH1XLcSwIn7YFf4MU7uxZ2RzMEw1gsWaeQJ2hwfOKFl4CikVZojDK/rEAub21t47n6+FMXmm/k1V6598ByOQYUtQpjsdq3ZwhmF+Ui95r4dRfvuJZWlcrlkvTcrPtevlha0fS1NTXPNbsor6tbVFpdeuXegxZRA77e2NQUs3R+dArPEOzoEqEZgl3bkzdjU9k3H3kIRI2dXcKA6Jh7Xr5YWuWXmVZJaOLXKXqlaCJh+faqDfRuGA1EeELCBUeXqOSd9S9Q8AykFb5ZUAACQAAIAIHXnYDVXKviQq7V67IpaiUQNV5ycluYUVFNsNJTHwUEU4/YWNaOKzzDItBqUk38OlukVWF5EV7XCheoy0DIOoQXHF3M4mpbMRVyXatbDGZqdqZhiVzXlEZaGQ1ERV25k4f3xTuu110ZIfFxOPHIaCB8IiPDt7OXqNeLcq3aZS13PLyvuzLi0thr+jFUYXNNl1Oc9/0j5nVXRnJmen5ZAZZW9H1J2/luW+ta3ffyrWmswt2t6cevujCqditddHZ7QanCb93cbzGYJVUluJV+fiQyKeGaq7uDu2dtU7VvVBSWVoal8URO+s2HTy44unz/iJmWk4VWr0Bt93IDna2sK//a+SHVPZBWmDkUgAAQAAJA4I0hUFzIZackaEe79bPkDEFVf5vVq7NJWgXHxpqt8Y1myeHYhlXTb95B9IN9Eumun6Y++ssUSpouOblRF3Q4eh+gRyAABIAAEAACbxUBtK5VWGjw9rpWu36Zhopif2mlnxu5fNeNL6ynNkOz5KjhHOrZN7VcXlN2zdV9fWnXT1Mf/cUGx8VSk7eO3gHoEQgAASAABIAAENiLwP7Saq+WcBwIAAEgAASAABAAAkDAjABIK5vWqDCjBrtAAAgAASAABIAAELBKAKQVSCsgAASAABAAAkAACNiNAEgru6G0Kl3hIBAAAkAACAABIPBWEQBpBdIKCAABIAAEgAAQAAJ2IwDSym4o3ypJDhcLBIAAEAACQAAIWCUA0gqkFRAAAjsEluaGB/v2XKzF6ksEDgIBIAAEgACVwHGUVoNRt1u/+e81bSfV0UOXN1c0Msffd7mdObQFs4Z2N2hmn7p7lH1R+7W9PDKp/JyTzBLvWvbM9uZQ89AEgpor/53FnpgbPrQFy4YSYZ2vr08qm/xJb8sKcGRjVdOU9Ht+ut3eJ3ZHqtcJqiM/VdQ/trtlMAgEgICNBF5UWunl9ZqCXT/bbEvH9K36Aq+KLvzX6hj5U8q2GKSps7E0Jr1+Snb7dzR18KlZcb7g7Am0Sb/9KT5OLRzIILXhIcqH62s8N2ipr/EQ3aEm9yryI/g7v3JNb2eA6PtzWkK4zfXprR3l2ZmFkbS2pvlFte2dXsxNz5K96Fr8p9msBqX130aw3ROjgWDWlX6WnqTZ/fNTB7JgVrlVVM9kMhtqSwzbv9FkVsFyl/5Btqz/IkdesC8lz7cp6fcv4gBqu7EyVhtzqjHRDqZsd+ZAzi+MN1WEvtdded92+6+qZmhCEqeA/K3VV+UD9AsEXgaBF5VW2uKI1qs/Oahn+7baXLHniuebK+Oba1pbnDRMyqf53Gk+dyDy1l7SymggbDdoS6f0dQ7Rl/jyx0RFHL1ZmrMHklZGA/FsVUdj7dieGppQnmaz1FODtnt4rKSVfckvzQ37+fnWVhXZTsNoIPZ9kA9kjb7yC/Z1IHVC78nmqsbG9wm9HdvPHtT5jRXyx1Jt7+KV1ARp9UqwQ6dHQOCYSqsjuHL6LjQFYTTSir7tKz/7gtLq/kGiVq/8Yg/twBsgrQ597ZYN0VDg2kFieK+btPKzS9TKEt0RHFHyXj/nJ7VjDs68uSk6kReakAhRqyP4/EAXR09gf2ml723oenBGdP590fkPeh7/a2VIgLzsdPkrHjvDhTkp+Vfvskrc631RcuUTyVef9gVdMxA9trQSX/4Ym9pY2jVSszJMGpReP6ViuT5f2D/FZHmAj611PdiVGzFRmyw6//5UU0bbdz+TXPl0MPrOxuIIlb5VaXVogytDAjnzS/HlH7V997PxvGDj2v5hnkP0RR3N3OvCqddILXNkvC+zU/+Vyc7tEjhXFuABweZB2Wk2S6jquJSX8XdOild96eLSGGqY3yX44RTaEiUN2Nry0tif0xJK5GJ8pKxX/Nf0xNVlMhLZour4tpD7WXrS9cIs0fBORh1NX9iUWaGuX3qtIMu5suBzTnLLkOxaIfc/2Wn9uj5UbXlpLIxX/QU39UxGkmNZbq9GgY7Hi+uw57iAL2FjTZfT2XIlP+NMRtKtkhzZKPnRNRqIi7npqW1NHrUlZzKSrhVktVNOmTlG3V1ZGg9oqvwHJ/lKfkb7aM8fUhPwgODGmo7TzruUl/FZRpJLZQEOoUlGOk+zWaOTA9iOb2O5U3ke2v0HJxm7bVjZFY7VL42H86u/zE79nJPsXlNMHS5c1I8FNVeczTKdCuFVLW/fR2SzMD8rLTURd4cLh3v8ZU6nR9ju/SHfii9+2H7r19O8LGRwZVgsOHtieYCPdvXyesHZE6saGdp9Njc4FHNPev2U5MonCr/LOCWA/lWDXbUsTCoLm5J+XxXxo47SW/3NXlRppdcJRNnnqiI/rov7+aAgBD+S/PQz7UXfYlNLE9Ky4JPTg2VGA7Gg4ZcFn0RbS/rfcB1U0BMSSc6l6shP62J/Kq9xe6bfeUHt1ZeZBbPdvZzXybllwSeJvrwG1q+rIj9pK7q2vkh+TlSSSOxhX6MHNvhMP1QR9v5I204ke7Q9viL8v54vkU4SipzmlD9Whn/YnPLHif4C3JCmL1xnr8Je0qqirtLNP+S+T1Btc21Y4s6AYHuH6AbDu6tb4h4c4eQVyOJkLC+YvgJWF9UOT3ybBDtvGJ6o8baH35qeTrTt5RUcBwJHQ2A/abWmk14/1Rfw9UJn5YKsQs78UuZIJhnMy8qn+dzBqNuSK5+gQbRpPnd9qtc0XrambbvxC4XflVlx/owgp5vxeY/HF+h6aFoZDcSsKG+azx1NfSI4e4IqrZ4vDLd99/OuB2emmjJ0FbGt3/z3QJTDvoCezQ8hxxQ+lyyllfDcu0Nx91c1svm2UsmVT9QcL6pBq9LqcAafzw9Jr53q8/9qobOSqIoXX/xQWxJF7ctq+RB94dFM0cUPh2LuoWtfkFVYtU89KFR1nGazUqSN4uGuwOaKCznpZtIqoqVaPTXYNSY/n5MW1VKD2mqmh5oHZc2Dsou5GViXoFNu1YWMmp2hJfeaYrzbp+37w1ZfPeO9CeL6P6UlDhD9qBWSVlb7onpLLdf1S/+Uljg5N5woafgHJ3l5acyvsdy9phjV8W+quFaY1TjQ3jraFcqv+lcmW79keh0PTw40D8pyOltOs1kF3UJ0FSOTStSqoFvw57SEtLZm/pDMp6Hsr+mJWPFczE2/kpeR1yVoG+l2qSz4Byd5Qb/rDwCqb7gcJ6r7nJNcKhcLVB0etSV/SkvE0orbwf8bJ7lSIekckz+sLjqfk44E6LNV3d84yTmdLcjIxpruc04K3hWqOpoHZQmShtNslpm08qgt+TI7tbRX3KBsu1mc/U1B5vq29npYXfRNQaZkpEs43HklP8OjrhR7aDQQGWnJhfmZ1COm8qEef6OBkDmdNikqPndV3TaS/Eh0/v01XbfRQNBLq76Ar6XXTxGV8VNNGZ3Of5E5/n5jS//RvzTMfTaQsx3X5uSVER9JC65OKAsHWgIbEn6DpdUz/VBtzE+l+V/PqCpH2+MrIz4abn2K7Ay0BFVFfrK5Sv4ZoBJHVEd+urG1u64f0sm5Ojm3NfeSmbR6ph+uj/tFS/rfND0ZI21xNdH/01l+Gxmk6Wsvz40GgsZ5JHe6q+7rCcmMqrIu7uc91S7I1NJEG/KwgfUrqrQyGghxzvnW3Eu4x9a8K3h3Tt1QFvxOf5PX7HC1ouFxeeh7C+PNqCZNX9iUWWGaGCss6iY06tnJcQdn3tK8Rjemzi/oQeGrrm7JDYZ3cVVpt7yVncN9FBSOo1ZIWmUW5Ok0fUql7GFgWFZhPjIemZwSzU7FHcWkplF38XEoAIHjQ2AfabU+pRCcPbHQWYk8Xp/qnZMWUfMMrCZAbK5pDZPyzWXyr4o5aYngi3eoUslqKwxlRpBjJq1mhLmCL06uT5PRCKIqXnTxQ/z6ww33KgwnPrSUVoKzJ9anyDCGiuXa6foZtblVaYUrHMjgVGOa6MJ/PZ9Xoeaj7Mcyp9PY1L6FA/WFrB10QDCMV40jIhtruv9kp5lJK912rnRaW9M3BeZfwN8Wcc2kVYlc/Fl60tpWwpxhRftZRlKFQoJ8C+NV3ykjoy9GA3GrJCdKQGo1JK3o+zLDVdcv/YJreue2qDpuFucYDUR+l+B6IRkjmV9Ur2xpKaOBWF/Rnmaz2kZMX/Bo22tA8Lsi7lNBLaqDaGRup65fzE0Paial6uTcyGk2SzzchQ3uVfgqn8OWkrMK1FOD1DT2r/I5Kdun9Evjf05LaB4kQzjeDWX3K8ivlq4x+Wk2SzM9RO2iZUsQU6XV0tL4aTaLN0jO/xibHjrNZqFY3fS8yVscZpOMdP2BzZpbHMUG01ITS4qy8S4qHO7xR9JqIPIWMrK5ohGee3eqmUMvrZ7NDwnOnpjmb8e3RlsFZ0/o5XXYJfqXBq6GC5ru9IrQ954vk9fYXvwdllaa7vTK8A+f6clHUtHwuCn5D6ihXicuCz45oyLfeCLuF7LS77FNVJDXPjSTVkRfblnwO4Z58gWF5Nrmmkmf0fRlZpa6S+M8kjvLU+TnZCsN63+pbY0Gopn9JzNpNdIWVxn+IaKxsayujPhILSPngXZV3BNw/okt8NP+1lPtinZt6Qs3RIXB/mF3L+FtZ15Csuy2C4+VLLvtzHvsLRweNA0LZOTnBceT/W6sah8EhJpJq6kJMgJXVlPODCf1bpOg4TbTb33JxHN9WePI9OeLm8z6hV0gcKwI7COtNlc10munuh6c0ZXFzLeXPZszz/nd63033Zwpu/070fkPROffF557V3D2hGFSjq98r1aogqW00pZEtV79H9z8oAWr6kT4n/ewnfHcoPabv8K7phciba7VgQyOZQfiUJ/RQEzWs8UXP6T2RV8+UF/I1EGllXtNsV9jOXbjLiXXCskdnKjeoGzDIgzXt5RWU/Mjf2CzJCMm2WH6Fk9NmF0gv+Fcq3ZGG40GIoRXhQNatvSFO0UFq9LqWgH59ayaUDqW5Z7JSPpLeuJf0hOpmsZoIPaSVp9zUqijmdQeL+amc7ZlltFA/DktobpPSq1gtfw3TnK5ghwe3TQQVDeoESyjgbicx8GhqXpl25/SEpe2pGGCuP7atl7EXVhKK9VWYj51GBFXlmt6T7NZMwvkqPfk3PBpNku5PXJqNBBWpdWhH3+Z02l1hifuvZvxz6nGdHpptTzYYhorVO2MI+PmqED/0jCrbLq/ovC62J1JvkqeD5ZWAy2BuGw0EOOd7MqIj7CFxsTfKxpMKxes64cqQt/TysmPE65gKa2GW5/WRlufzUPfF7ZpVqBxHskdFEjbkm4Zgsx/mTW3lFarsz1lwe9MKgtNryBlYXnIu2tzphEGo4EQZZ/rrryHLXRV3MEBLVv6wg1xYWNV1ydXxSW2O2wJLKVieHM7BSI6NTWZu8MzhLWTa4WiVs+3g6yt7S1YhM1Nq24yvHvkpmetRy696e6zMLsz3or7hQIQOD4E9pFWRgOhl9fJmV9KvvpUcPaE8Ny74wWhVO+tvu9WhsXCc++OpjNXVMKVYfFkHftFpdWh5iFiP62qE9H593GF8dygtpu/xLuHk1Z7GRzL8hV8cXIrWe19JDSpNamdWi0fwvmDSitGTZF/0864IXWGIJI7z1d3JfSY+WkprVA4KrLFtIJDZEu1Y9nO/Op7Ffl/TE1AWucv6Yl/TE14sD0rzZa+zLqmkVYba7qLuek/jLINEv3qqUGzcBGNtPrH1uCdWUdo12yG4F/SE6sV+6+ueYYStDPullan2aw/p+3Q+AObhRd3WNoKYjUNmEJQVwszk1vNV9OwlFZ7iUWjgejcinth7EhoKrRk1BZJq+JCruVVH+LxR1ErqrTCZmkGBFFy4cqwHaVVWF3sz3DX1El2Sp5vWfA7FWEfkFvoexVhH+CaW0Gs/2dK0pdnVoR9gINbuIKltFJJImtjTuEK1AJ9X9Sa1PKQaE/nkdyhj9lbSiujgTCFo6qcTeqkyrmF8znuTph1tjzERABt5SHviXMuoLO29IXtUAvz05qHHoLUjA53L6F+lhxdNRqIaHZqMnfnY0adIYik1cYerxr/mPisQlO0O6swLyiORe0LykDgGBLYX1php9dn+oeTHgnPvftsbie71qq00hRFiC9/jDND59vLXlRavYSoFVXfvFxplR3Y7vCblWHxzja6//cxxn4E0mrfqNUhpBWnnXchxxSouJCTzu0g05Z/SCJxrSrwayxHWgf9PzlHhlLsK60GiP7TbNbgdiLXxpqOGi6ikVb0USssfYwGwkZpRR+1KugWUGksUtaUcq0qCGyu0M2oTrNZfVpysAl/MCyl1b5Rq16NgtoXdTAxOysth2u6X3tttj/+dNJqVCo4e2Kpn0zlWeypFZw9saYzRTePOGrVmPBbPSHB29LEziM5O1JTFnxyeUrWUeYgydnJT8JkLKUVfdSKpi9s06ywb9TqENJqoCWwPt70B2R9/C8HhTt/IYuyz8lKbmIUekKyMkOOmx9aWsWw2oMiJBuruoBQSXzSzgqF+0at9pJWFXVVj4LCjQbiUVB4dYOtq+6ZUYVdIHBkBPaRVoYJ+WiaB05yWlaJzIL22tKnkq8+NXNXVxYtvvghXptqPD/EXFpZa4WNWA4IkrlW26lRRKUdcq3opdXWEKT1CL8pD9pa8tZeBqca0yRXPsWZZ6tj7Ys9ZCoPvmSawoH6QnYkX32qLSXTFGgs41OhvCqc/2Q11+oQ0mpkauA0m8UfMk0wHKMkCYXxqh9V72S4DxB9eADLvtJqZNK0bBWeFdin7TOTVsOTJg+HKbPwEJDvirg4/csy1+oQ0upKfgZOqDILnn2Vz8nuIHPVNw1Eh7oHj9kZDURxj+gLbmqJXHwuO3XTQvRYSiuUa4WztVBf1FwrPHdycWmsfbQHZ7gbDURddXFkhPnav4d7/Gmk1caSWvDFO1MNZEoyUZ0g/M97SCVs51qRIY2VEYl5rhXtSwN/mHFB05VGk2tVHfVjvPjT8mT77MjOI7m5pq2N/smINLY25qej7fHYIC5YSiuUa7U2T0YBR9tZlREf4Vwrmr6wTbMCjfO2yB2rUSu9TlgWfFLXm10WfJIqJbsq7kkoGe4L4016HRk7tKUvM89N0b6x0bsP+ZpRUw6AWjVy9yF/QkNOK87Iyw2izbXaS1ppNYobDG9Zp2kWIaElJ75Ydg1HgMAxIbCPtHo+rxJf/lF/0NU5acmctLjP/yvJ1z9G03bQBaCIlKYgbEaQMyPIQclYKyMS4bl3ByJvzcvKtSWRnbmtyXsAACAASURBVM5/NpNWVls9m1UiI6NpHqaEVl7WjCAHZdA/n1e1ffezXTMEt5NkaTiujLYigwrfy7Lbv0PlFZXQaCDQ4gu4rWXUarG7WnD2xHhuENlq1DTMfziD5AzBgK9nJQWTdey2734+GO2Eu96rcLi+kLVuxj87Xc/MtHBnBDl6+f4/QSPYniEoGTHNEDxvMUPQqrSSaxQtqo4WVcfF3AxmXSkq45wqo4G4kp/xbSHXLO3dNEMwNSG5tVE62pXd0fKX9MS6fjJdyb7S6tmq7nIe51ZJTutoV4Oyza268I+UVQ9Md3Np/K/piUHNFchznCSe17VrhuBf0hOx+DvcgGAsmiHYa5oh6FVfSlV43A4+CpK1jnaF8ar/kp6ondnJVUeZ8t8WciO2hlbRzV3UjyGHk1pNMwSbB2Utqo6uMTKR8XFtMXWG4Ff5HKyfHlYXXSvkNg20t6g67lbkf5XPoco19VAHk8kc2p06drjHn0ZaGQ1Ef/A16fVTk7UpE9WJrVd/Mhh9Bz8CCr8ru2YI3v7tvq8a3NaysDonrwz/cHuGYFAD69c4v4qctVfwzYSycLyTXR/3i66Ku1QLXRVOzSl/LAt+Z3VuJ0N0aaKVUOQQipzWvMuNib9HZb3O9D55plfVxf2cOkOwo4ycwrxvX9R+cZnGeRq5MztSi7xqYP2qrfAqKuOcKqOBaEz4bXPKH5uSdqW9z6kbykPe7W/0nBooHhKGVoR9oOlKQ57Q9IVdtVpYmNlZGYFa7uwWoxmCPXIpO4f7MDDMLI19L2n1Qy+PQyO9ImNwbju138UZVWCAv2h78jL1FJSBwCshsI+0MhqI+baSTuc/o3WtOl3PLHabB2OHkx7h9ajw76tMN2e2O/xGdPFDOfPLaV6WmbQyBX4sWiE1gxdkQoVOl78iLssqUa/XefHlj6XXTqninPGEOxpqY9kBZtYEZ0+MpDBskVZGAzGW6SP5+sfIwnhukOnIYQ2uDAl6PL4QX/6R9Pqp4QS3Df3OzKy9/D90X0YDsaTkddz9g+CLdwRnTyh8rIxoWHaa0c77kpv2z8yULBnPxlwrl8oCvLoSLlDXqULLRyW17ixIg/ptGZJdL8z6LD3pq3xOcY8IO0MjrZ6vai03U6zF2gxBahr77dLcz9KTrhVyu8flZtIKNT+XnYqcx/njG2s6bgf/ytZaU9+X5FAnFe4lrTYNhKV7G9upu8tL4/5NFX/npFzKy2gd7aJKq401XUY772KuaV0rh9Jda2ghLDeLc06zWdLRnXmIPeOmhHSzDc2ONBqIxaWxUF7Vl9y0f3CSGTVF45R4IVrX6t9Z7M85yU9qS6gaDvWVkZYcFho8O0EuQoEOHu7xN0tjx7fYpELmBk0/Evr1/229+hPTg0xZoO7Z3MBgtJP02inx5Y8VPpdWtv6eoba1fGlQz1qWJ/oLGhN/XxnxUXvxd32NTCytTCmkOoGI+2VV5Me1MafkNQ/wREJkZKK/oCz4ZEvG36k2B/gBeNUoXFDUu6M6izqROOdCVeQntTE/7alypmZo7dXX5prGtLD77g3nUezlPI3cEWWfw47hAnWdKkW9e1nwyb5GJvW6jAaCUGSjda0aE383Io3BZ2n6wnUOWiivrXT1D73vHVRZX2V7rpVp8m9Z0Q2Gd2HlrkVDUO9DfVLLPwwO6hjUBwJ2JLC/tLJjZ2AKCByCAAremImJ02zWgX7+7xD92t6krl9q6R5WeLbbebU1l+aGY2Oi/P39WpqrXq0nb0nvjQm/wQIIF3TynSzvt4TDi1+mqKWGyWSubE9DfnGDYAEIvCABkFZ75u2+IFlobi8Cz1Z1QxNKyw2HhezV0aHtLC6NWbqHFxo9tNmjb7i+NM5vqiwtMq0QBtvLJqDXiRc0fLNtXb8zIvyyHXhj7JcUZj+NMiW5wwYEjgkBkFbwNAIBIAAEgMBrTCApMa4gz3wp42PyFQtuvJ0EQFq9xi+Ut/MjC1cNBIAAEAACQOA4EwBpBdIKCAABIAAEgAAQAAJ2IwDSym4oj7OCBt+AABAAAkAACACBoyEA0gqkFRAAAkAACAABIAAE7EYApJXdUB6NFoZegAAQAAJAAAgAgeNMAKQVSCsgAASAABAAAkAACNiNAEgru6E8zgoafAMCR0lgQNG6PE/+6vZR9gt9AQEgAASOAwGQViCtgMArJqCWJVVGfEQo3pyFOpMS4/z8fNsk5r9xdBxeeeADEAACQOBlEwBp9Yq/Vl/2DX7t7I/nBuFfonypzhsm5WNZvusz/YfupSz4pKYn49DNccPh1qcmU93p+MgrLCiVHTcY3gszqhfxYW1RXVddzGQyZa1NL2IH2gIBIAAEXkcCIK1AWh0vAuLLHxMVcUfwLC0P8AVnT6wMiw/dl72kldFAbKyMH9oN+za0i7RCLlWU5vn7+a4uqu3rIVgDAkAACBxzAiCtjpewOOYflyNw7+2UVkcAFnWRmtHB4XbSdKdUyl48aoXsL8+PeHl5QuCKhjacAgJA4I0kANIKpNWREthc1YwkP2y9+hPBFyel10+ps3zRczUrzhecPWG2dT04g86qWC7djM/Hc4MkX33aevV/RtOZxjUdOtV69Sfa4gj8cIrOvz9Rm4x2N9e0moKwdoffiC9+2Ol6Zr69DB0fSWGYdSQ4e2I0zQMb2avwTD/cUeZQFflJY8JvpwbLykPexQOCm2uagZbABtavKyM+EmWf0xMSZGRSWVgWfFKv24mNyUpuCDL/hc5K878uCz6JtsmBImq/6/rB7sr7tTGnqiM/bc27sjTZjs+uLyo7y2/XRv+kOvLTroo7zw7yg75WpdWEThnMSrzj6R8UnyCW8qnSamlhNDU328U35K5XYFpeDg5BFZSXuPqHbm7fBaOBcAsILakmCWNXkxLj4MeeMQ0oAAEg8JYQAGl1pMLiLflU0VwmUREnvvjhZB1bL68jquKF596dajKlKxkm5dN87jSfK7r44VDMPVRekFUgUyqWC9Jhq2Ptk/Wpgi/emeZloVM00kpbEin8z3vqLN+ZFm5/yLei8x+g4b/lIcE0n6spCBOcPaEtiUJ9rQwJaNxGp3rrHlVHfjraFk/05UoLvikPfQ9Lq0FhaFXkx2pZ0oyqUpJzqT7uF8+XhtFIX1Xkx0OiMGRhc01THfVjvDs3WqeTc8c72WXBJ82klbTgm9qYU6PtLE1PBi/1r01Jv99YGUNGJDmXmpL+d1JZONGf35jwW2nB1X09r6tTSFsHnq3oMrI6c/O6ny3rWsXKxsY+1ND3aaxneHR7h0go4fnHxFOlVVRKKjP8aY9c2tUjeRwaGZdO5paphrpuMLxHR7qRBfVoD3UX+5Obnc7NTMW7UAACQAAIvA0EQFqBtDpSAqo4554n/8aP1mJ3zcpoK941GgirA4IqlkvbjV/gaj2P/z0Udx/t0kirjvt/UrFcUbXNNa3025+O5wZhI4fItWpM/F1/sxeyoCck1Fwr06km8tS6frAi7H2dnItqthd9K8w6i8ozqqqy4JNLE23YDaOBWNcPmkmrdf1QWfBJXS9pYWmitSz45NxondFArM7Ky4JPTg2S8aGtqNg7a/MKqkHLcmpGh6Mr391LGBzRGholfcgUOrry0cjg3LTqBsO7r4+MijULG7G0QqcUCvJUj1x6k+G9OGeSjJtrOlf/0NIaUvuW1VQ8DCTlI7X3grzMzIwU6hEoAwEgAATeeAIgrY5UWLzxn6d9L1BXHis6//4o+/FUM2fZWqBoL2nV/egf2PhI8sOR5Idol0ZaSa58qquIxa3MCoeQVlURPxqVsUg7azqqtKJGsIwGoiHhNzg0pelOLw99b31r2E7R8Lg5+bSZJ5bSalHbYjaMiJvMjtSUBZ9cm5OjIyszXWXBJ+fHGnGFvQpzU+PNzf33HvKd3Vv4fOX8tAbVVI+YAk4TOiXa7e/fybUaGuzEMstoIGanhqihqYz8PP+YeNTKPyY+qzDfsmuQVpZM4AgQAAJvPAGQViCtjpTA5opmNPWJ7PbvhOfeFZw9IXM6bSB6qI/ZntKK8Tm1Gi7TSCurpnDDQ0iryoiP1LIEbIEqrcqCT1aEvlcR9gHayoLfGRQEo5rr+qGK0Pe08kyjgWhK/n84uIXtWEqrBQ3fJK22E7ZwTaOBmFFVmvra7qgi7IOtgFY9tc5e5bJyuX+oxCdIXF3Ti+uMjnTfYHhPbksr6gxBVHbw8MXbDYb3sIocBERBrIXZ4YXZ4ZsMb4ViVygO2c/P5WRx2LgvKAABIAAE3gYCIK2OVFi8DR8pG69xc0Wjl9dJr58aYbtTm1jVQyiNnVoNl6XXT2mKdtLYhefenawnv8uPOGqlkkTpCQne1hfJOJDRQIiyz3WUOSxPyUwRJrV5hMlSWu0btZobrcMd6QnJxvL+CxwMD47cduHJu1VdHYOOrny1ilwtfd+olWqoS6fpw9v6MhnuerasveMZIBA3C8TNd70Cnq9o8U3BBU56Sn4uB+9CAQgAASDwNhAAaQXS6kgJTNazpxp31sbsD77WH3Kd+qRJvvpUW/qUesRoIGikVdfDvw9GO6H6q+o2wdkTi93VaHcr18oFla3kWg0JBGdPWB2UNOsd7zYm/BbHnCxzrYaEoWTNNd30UDkeszMaiBFpTG3MqZG2uLrYn+K5jdispbQic622s7VQX9Rcq/kxcqHz9cWBqcEynOGObVoWUtI6klJl6Hh8UntGFrkEg1lClWWu1cgwGaZaXlArFO3PlnckFIuTkZDJSczMTMoiZxVQ+91c0wUHBTbWmU8bpNaBMhAAAkDgzSMA0upIhcWb9wE66BWNZfmKL388UZO00FFJVCeIL32kKQynGulm/LPT9cxMC3dGkKOXk+NcNNJKVx4r/M9747lB0/ysLrczsjv/u7lMLr+pKTKbIfj+smpnEYTnC8Oi8x8MRDnMCHJmBDmraivjWVTHjAait3ZrhmA7i+jLbSu6Rh0QHBSGVkf9eKQtbnKgqKviXkXYB8uU5RJWZrrLgk82p/yxu4rMvkeWib48QpGj6UorCz6p5PkQihxCkbO5ZgoLSfO/os4QbEz8HdZPphmCyX/UyjMJRY4w89+Nib+zlGtmnhsNxLNl3fICqYqW5jXPV3Y++T6UGYJ+0XHU/KqolFTPiJg2mbCjSxzCSnwSGkldcEEs5Tv7BLv5h0hlVuZX9vWImEymTr1rwNfSMTgCBIAAEHjDCIC02vmCecNu7fG8nA396FDM3dZv/ltw9kTr1Z8MJz7YXCEHmJDDS0pex90/CL54R3D2hMLnEjpII60217TjuUFtN38pvvxxr/fF1bGd9Z82VzXjecHtt34tMq1r9dmctMSMyVRDqvT6KbTGlabAygQ3s/rP9CpZ6fdVkZ80sH49OVBElVamda34AQ2sX1VGfNSS/rfp7Rl82AIv9TPTzL6BYnzEaCDKQ97D61rhwjO9aQre+uJAV8Xd2pifVkV+0pp7aWlCihuida1qov+nOvJTaf7XVA2H6xyoQGj7g+MTHJn+AbHxAnEzVVptr2sVfNcrMDYtfYrYGeU0GojlRfX3j30dnlhZcn1a1x8SHAQrLxzoRkBlIAAE3gwCIK1AWgEBIGBnAs0NFX5+vqz4mJWF0TfjRQlXAQSAABCwnQBIKzt/qdiOHmoCgTeVQFFBloBX/Ww74f1NvUy4LiAABICAVQIgrUBaAQEgAASAABAAAkDAbgRAWtkNpVXpCgeBABAAAkAACACBt4oASCuQVkAACAABIAAEgAAQsBsBkFZ2Q/lWSXK4WCAABIAAEAACQMAqAZBWIK2AABAAAkAACAABIGA3AiCt7IbSqnSFg0AACAABIAAEgMBbReDA0mp9iVzq+q3CBBcLBIAAEAACQAAIAAFbCBxAWkmEdSHBQUwm06Afs8U01AECQAAIAAEgAASAwNtGwFZppR3tZjKZDbUlo4My6o+IvW284HqBABAAAkAACAABIEBDwFZp1dnW7O3tRWMITgEBIAAEgAAQAAJAAAjYKq0U3UImkwm/XAGfGCAABIAAEAACQAAI0BCwVVqphzqYTOb81CCNLTgFBIAAEAACQAAIAIG3nICt0mpS08tkMic1irecF1w+EAACQAAIAAEgAARoCOwjrTZWtQb92MrCaHNDRVhoMAwI0qCEU0AACAABIAAEgAAQ2EdadUibmVv/YmOiprR9wAsIAAEgAASAABAAAkCAhsA+0mppblg91DGsbC/Mz4yLfQrLLtCghFNAAAgAASAABIAAENhHWmFAKNcKAlcYCBSAABAAAkAACAABIGBJwFZpNT7cxWQyZyeUlibgCBAAAkAACAABIAAEgAAiYKu06peL4Sdu4EMDBIAAEAACQAAIAAF6ArZKq842HqzGTo8SzgIBIAAEgAAQAAJAwFZppepvYzKZvV2CtUU1UAMCQAAIAAEgAASAABCwSsBWaWU0EEUFWWghBoN+zKotOAgEgAAQAAJAAAgAgbecwAGkldFALM6oxlSdsATDW/6hgcsHAkAACAABIAAE9iJwMGm1lxU4DgSAABAAAkAACAABIGA0ECCtCPgcAAEgAASAABAAAkDAXgRAWoG0AgJAAAgAASAABICA3QiAtLIbSnupXbADBIAAEAACQAAIvL4EQFqBtAICQAAIAAEgAASAgN0IgLSyG8rXV1+D50AACAABIAAEgIC9CIC0AmkFBIDAG0JgaW54sK/VXi/H42lnY1Xb2yV4vqI9nu6BV0AACMAMwTfkGwU+ykAACEiEdb6+PqnshDcbxbNljaenZ2RE2Phw15t9pXB1QOD1JfCGRK2mmjKm+dzjcxvKaso9wqKO3p/U3OzIZPbR92vHHivrq0ZHum03+CgovLK+yvb6qGZXx6CDM8/Rle/pL+LzlQdtjurfYHi3tgsO1/ZFWh3ukl+kR/u2VWgVOZ0tttskZlWn2SyFVkHTpFVUz2QyG2pL9vqtiFf1SJr5bBc35qcGM9KS/fx8J8Z7zezbfdewMtYk42Y3RAi7C+xuHAwCgTeVwBsirfr8v+oP+fb43CS7vEBpLufZim6gb3h2ctyszhFLq73cMPPqQLt3vQKahY22NzmczpidHBcJlQJBfxqn08GZJxD0294jrvmypdXirGagb3h1wXzo53CXjN0+aGFCMzbUP3zQVjT187sEX3BTaSqYndpXWi3NDfv5+dZWFZk1pO6+7EeS2hdN2V5uPF/RxsdFs1NebohuYU5ZIUoqEyRWiVNBWtHcVjgFBMwIgLR6KWOCpTUVLztqxU7v8PAVmX3vpuZmR6UcadTKqhtmH7ID7R6NtKK6lJrR6RskoR6xsfyypZVBr/X0FyWyZWb+PAoKr2qoNjv48na1arXTA35TU5+9urC7tEJDgfS/HH8Ej6QtfOzoRl+PiMlkzhCHjLna4q2wu7C+LXNteZTfmQfSyhZiUAcIIALHS1rJnE6PsN37Q74VX/yw/davp3lZ+D6tDAnkzC/Fl3/U9t3PxvOCjWs6o4F4vjAsOHvCcttYUhsNBFERJ778MbYwnhvUdvOXaHd9pl9w9gRRFd/14Izo4oddD84sD5EjOxO1yaLz7081ZbR99zPJlU8Ho+9sLI5gIzSFHrnUIyzqjmdASja3pLoMSyv9/MgNhjdP1BgQG+/I9A+IjdeMkUMb/jFxCZkcbHNCp7zB8O7ra8dHaAqrC1oPX1FqRge1TmpudjQ7taKu6r530IOA0JrGGnw2MTMzNi0d70Yms1Nzs9Huxqo2t7TQ1S/kJsPbzT+ktKYCV9u3YOnG7NTQDYZ3ZkHeHU//yvqqZC73rlcAT7QTiKpuqHYPibzt4ecRFiUQN6MuuntabzC8zbaA2Hh0dnNN98O1PA6NvOPp7x8TT0X0KCi8tKY8Lj39jqe/Z3i0QmETPep1CQVKpwd86pG9ymv6sZTs7LteAY9DIxWK9pvuPnhAkFuUHxSfUFlvIu/iG1JUWYp+arOn13RdOs2OLknKygqOtzXYoB4euePGa9kdVHsUFF5WW5nA4dzx9GeGP1Uo2pDDOk3fDYb3mFqOdodV3TcY3tMTA3g3IDbewcP3todfCCtRe5CxpKamvrsP+Fq16bFCWyi/6nFt8cXcjCv5GUJVx7+z2A6lOYtL5A+3j04OPKwu+pyT/M/MFM/60ql58gm6WZxzms0y21pHyZwh/dJ4OL/6y+zUzznJ7jXFmhkV6gtFrar7pDeLs89kJDlXFui2T6EKhflZaamJ2Ddc2OuRNBoI7XhveFKyk1fAw8CwqoZq/LuoL/JI4n7NCnu58YJvhvWlcU9Pz26ZTR9d5JJSMezs3sJKNhfrZg7jXY2ufWPrTbuXtGqsK/P29mppPvCIPO4CCkDgjSRw7KSVSVHxuavqtpHkR6Lz76/pTGk3z+eHpNdO9fl/tdBZSVTFiy9+qC0xZTJtrmqm+dxpPrfT9Uw343NUnuZzN9dMYyj7Squex//Wy+tWVMIejy9kTqfRDZ6oTRaee3co7v6qRjbfViq58oma47XvvV+YUTky/ePSM7rlrRV1le4hkWbSKjQhSTXUpdUowhKTPMOjkcHK+qq7XgEbq+SIT21z7V2vQNvn/gwPjji68lvFO3+2puZmPwoKT8/P7Za3FpSX3GB44+9dGmnVLGy84+kvauWrhrp4osZbT3YUw74XbjQQZm4gadXa3iLvld5keCuVMr6o0ckrEH178cVNTltDfr29bdWNNbee+AwMmNThwoyqvUPU3iFyZPpz8vNQub+f/A6o59U5PPEtramQdYoSMzNve/hhsfIoKPxxSERdc11vb1t4UvJdr4Cl+VFb3MZ1Kip7HzKFeJemkFtaeNcrsFnY2NktjktP//6xL1VaIVU6SQyIpfyb7j5tHSabz1a0Tl4BWONurGrveQfiXZq+8KnaOsW9h3xCsyNrTJccGlnVUN3d0xqdmurkFYgumUZaba7p3PxD4tLTlUpZf78sPCkZfz5xR/SFuIQ2nyDJ+rLpTxqjgQjlV10r5K6vaB3Lcl0qCwwr2kt5Gbmdpr9PNtZ0F3LSH9cWi4Y7W1Qdd8rynCvJNJ0OdU/zoCyoufJzTnLzoAxtswvk/fKoLfkyO7W0V9ygbLtZnP1NQeb61jw4JK0cy3IbB9r5Q7KLuelO5XlUbzPSkgvzM6lH0Cdqr0dydVHt6h8am2aiwROZPvz1/DrU/AUfSTMf6N1A0upF3gxBgQGilp0/nyx7NzvS1Nzn4Mx75HngBMG9pFVmRgqTyczh7vzNZtYj7AKBt5PAsZNWA5G30J3YXNEIz7071WwK6kw1poku/NfzefKv2FH2Y6yEUGWruVb7SquJmiTUfKGjUnD2xPqUKSd0ojZ5q0wGllQs107Xz/b9cEjaWm498Vlf0qCaiZmZ+KsLvUBxeEap7LjB8F6YNSWvoO9CpZIUEGGJSclcMhl/dUGrn9PsuxUWdTszWqZ0ZLQgNTfbPTgC/wnuGx2XU1yIXdorapVVmBeasPNH/9BgJ6Elc48O4QaSVjpN3/Ki+gbDe00/NqaW32B4L219g64uqlEBeRUYxyqqLKXitTog6BMVyy0iv54313QPAkJx6vqjoHAcfkNdd8ttnX6/sWpKWXN7LODmdFJ92Kv8JDSypLoMnUX3jiqtflA8uGFoQlJmAfn1n5DJwXgHBkx3f1JHquGl+f1vsX5WExrVGhAqebZCyhrqJa8uqm8yvDu6RPjjZDVqtTg3fGNL5iIPF2aH5b1S9DnZWNXt+zHTz2l0Y2q3x4KcPDLCFMqv8mkwoYgR1sWLTbrkSW1JtKAWSauZhZFnq6S3bSPdf0hNMFAWC7A6ILi0NH6azeINkkHHsemh02xWr8b0GJJRKwV5W+v6pafZrJWlnUTDtNTEkiIyBItvAc0jKWlruc30W10kn5qC8mL81w7NI4ktH6hA48bh3gzU3kNDggS8AwwNP1vRdcgGifEdmU61RlPeS1otTA/JWpsWdwcRaezAKSDwlhA4dtJKneGJ0Xcz/jnVaPp7aCw7UOb4e3x8sp4tvvgh3jUaiMNJq/m2EmRkVd0mczq9qjYNrJiiVv95Dxsfzw1qv/krvLtXoaap1i0gFJ8tpcwQRC9QHD2a1Ck9w6Pxl6tHWFRBebHRQKwsjt16QoY6jAYiLqHNwZln45acRoqzrTT2FOxGfEZGAocccKSJWjUJGhw8fAvKi6UyAR6sREYO4cZe0kq/NSq0vKBOyOTc9Qp08PB18PC9yfDmFORih40Gwqq0uucd2CRooFbD5UdB4RV1lXjX4YmvUMLDuzQF7dgowhsa1bo8b54qbrXhHc8A/vbI5uaajpprZRoQjGPhVrmlhbmlpKiVtLV8/9h3ZeuL3PQtHkHGLI0G4t6jFhtvsYMzj88n9a5ZGvt97yAEhyZqtbGqdfUPDYiNb2xp6OtrX17c+XJVq0Zs98HBmacbM7W1Kq2iBGQEpWmg/et8zl/TE/+SnvjntITTbNbMws6oulVppZpQnmazRifJ4UtMEksr+ZbMMhqIXo3iNJtFzJJ/aBkNhFVpRfNIVtRV4b98jAZC3Mq74+mPe9zrkcQVDlSgceNwbwZq7weVVtS2ByrvJa0OZAQqA4G3h8Cxllb4Noxl+Qq+OCk6/z7ahOfeFZ1/H599AWm1K16CDKJcK2ycmqGFD1oWahprHlCkFXUe0PYL1HoOUEF5MTP8qdFAtMmEDh6++C9prVo90De878bhdt59wNdsJ8GYzRCMz+DEZ+wvrZ6vaAvKSzzCor5/7HuD4e0ZHj03TX5vHcINemmVzOW6B0colR06TZ9O0+cfE2+LtLKqt9BdMNMZDh4Hk1YK+ZDl3dzryB1Pf764CZ81l1Z7ZFCRollmGh9khj8triLjXkYDMdS//y0e6BsODGv1ChCtLZL6z+yS7/sENbbU00etjAZCNdQVnpR83zvoBsP71hOf6u08vNVF7b4fs4G+4Z7u5gAAxQAACyhJREFUIRdGCzudzO2jkVbqqcE/pSUmtzaOTA2opwZr+kxBpn2l1dCWtFJPDWK8uGA2Q1ChtSKtigvN116heSTLaspvMryRuHfw8L31xMfBwxd3t9cjiSscqEDjxuHeDNTeQ0OChPwDDAhS2x6oDNLqQLigMhB4TaRVdmC7w29WhsU72+iuQR/rUasqlvjyj/A9HssJbL/1a7SL0tjn2+wnrfaPWlmXVkODnTcY3lMTAynZ2VEpB5iRbkrFHRu9+5CPgxlGA2EZtWJxMtAlJ3OzYlLTMI2I5JS0vBy8iwrPV7SqoS43/5D8MlMgzcbNzA16aeXkFVDXTOa1GA1EcHyCLdKKPmqFBweNBsJ2aTU/reFwO+enyTFcWy52n6jVHtLKaCAikpLZOdypiYEbDO+R4R5b+sJ1UJb9+OhOApm5tPIOamwxhfTQNAj1KGl/aKjrBsN7dspcO+rnR3JLim498Vle2Ild4e72KqRmdHr6i1a35R2NtMrtEvyDk7y5/fmRjfbYIq32jVrhda0spVV2Vpplug9NuKiirupxaCQS9+h/PAJu0rsv8Eha0qNxg15a2eKGj493m8R6NNfSkxc5AtLqRehB27eQwOshraYa0yRXPt1cJrMrVsfaF3tMWR146wu82hd4Fe+iwpy0RHD2BEqENxoIZfhNOfNLdMru0krSxqfPtdpr5trmms7FN6RJ0ODqH0qdRmd2LZa7Br3WJ1CclLprso9lrlV2MZmiVFRZ+iQ0EqXXbK7pHgWFl9eS42jiVl5r+84SjgkcDnXeomXX1COWbtBLq/s+QVgJGZbG7/sEmUmr+95BDXxTDIa6beVa5aMjlrlW2OCBpBXVvo3lx6GRxVWkHLfMtQraW1o1tjS4+pnusltAKM6Es6VT3ZZ6bm7eteyWZa6VrNOUa7W+rLnp7iNpI6eM8cVNDk980SSJ+ZnhwoqSxTlyVE47rjCbt0jvDJJ3YyM78o5GWhX1CM9kJOFcK24H30xaFXYL/5m5M2yNuka5Vs2D5OdZPTVolmtFI63qqosjI8LMLoHmkZS0tdzzDny2nf41RSiHhnZWNj/0I2nmANqlcYNeWu3rxqRGwWQyRwas/81m1ZnnK0SnbHBCQyaZWa1j9SBIK6tY4CAQ2IvA6yGtyBmCAV/PSgom69ht3/18MNqJeklqjpfkyqdTjWkzgpxZMfkdvKEfbbv5y27G5zMt3LHsAOG5dyfrybCQ3aXV/MzwbaYfmiFYWV/lHhyBkznoX6BGA5Gen+sVGXOT4T0/c4CFGdMzTetarWxHERCN1Nzsh4Fh6fm5PXIpmiHYq5CiU5oxxfePfdLzczu6xCnZ2Q4evjjfq6ym/K5XgEDcrFR28MVNdzwDapp2KVcqarOypRv00iolO9vFN0TS1tLT2/rDwvGPQyPNpFVwfIJ/TLysU9TRJR5Wkcuy1zXvmiHo4OFLnSF4OGklEiofMoVikZXkHrNrxLu5JUV3vQJ5WzMEWZwMGwcEfxB8iIlXZAzObcc2aQpItiam7FLPP0yYRZMiqxuqu+VohmAAymMzGogEDsctIFQo4QnEza5+Ien5ZB7b6uKYk1cAi5PR29vWq5DGpqXf9wl6tmxThplubPTeQ/N1rWikFRoQDGyu6FD3FHQLbhRnm0krFMfK6WxpUXW0qDr02wnpj2uLqTMEv8rnUGcI0kgr9VAHk8kc6iM/6ggpzSOJZgjGpad3y1tFrfyHgWEZebsS/ugfyQRWbA53JwBMcweNBoLGjRd8M1SVFwQG+Ns+odhoIJqb+w80Q3B2pndc1zaua6ttTa9v46AyntFsNBCTmt7AAP/ONpuyG+lBwVkg8CYReD2klSnLe0jQ4/GF+PKPpNdPDSe4beh3/oA2TXGfG+j1vig6/77g7AlqhvuySoxWw2q/9WttSSS+c3aXVkYD0d3TurWulX9iZmZhZant0got6YTXcMJO0hT2WgYd5VqV1lTc8w508w8xW1iyq0fiFRF9x9Pf92ksdWmo9SVNRn6ei2/wDxP6XP1CcooLbXxfW3WDXlotLYwmcDhOXoEPAkKbBA3hSclm0mpsVO4VEX3T3ecGwzuaTUrhjVXtD9fyOCTCkenvFx3X20uu5IR0xuGkVWNTn6Mrv5m3KyBEw9xoIFYXx5K53B8WknAPjpD3Sm2XVkYD4Rsdd4PhjZUufUfoLLka+271jC65tKY8PiPDkWla14pqc3lRnZqb7ewT7OoXklWYt6bfiU8oFG0+T2PRulb+MfGDgzZNijSNM1pbjZ1GWhkNRNNA+5X8jM8yklwqC5oHZWbSymggYkV1f+ekoAWulDpy0a/FpbFQXtWX3LR/cJIZNUXj0+RQ5r65VkYDkZGWHBYaPDuxsxAJzSOJ1rUKS0xy8gpw8w/JLi7Ac3sReZpHEv2EX30NOQPGlvv4Mt4MfT0iT0/PA628YDQQ/b0qZ0ZLfJKtgS5hd0F2Q4TZtra88+7tlvGZTKZOfbAxblugQR0g8FoTOF7S6rVGCc4DASDwqggszQ3HxkT5+/u97OUriTE5k8ns6zGNwL6SbWNVm8NNZzKZJUXZBxpcfhneNtSW+Ph4U+NYL6MXsAkEXjsCIK1ezfvxtfuggMNA4JgTWF8a5zdVlhaZT86wr9td7Twmk/kKV3J6tqxJSWb1dh142U/7ckDWuJmpSYlxL8My2AQCrzUBkFYgrYAAEAACthKorykJCw1+rV/6dnT+aVR4VTk5UcaOZsEUEHjdCYC0svWV+rrfafAfCAABIAAEgAAQOAICIK1AWgEBIAAEgAAQAAJAwG4EQFrZDeURCGHoAggAASAABIAAEDjmBEBagbQCAkAACAABIAAEgIDdCIC0shvKYy6iwT0gAASAABAAAkDgCAjsL63Wt9dKPgJvoAsgAASAABAAAkAACLzWBPaRVsvzI0wmMygwQMCrfq2vE5wHAkAACAABIAAEgMARENhHWm2sakcG2uuqi5lM5pjK1l/GOAK/oQsgAASAABAAAkAACBxDAvtIK+Tx5pqOyWR2y/jH8ALAJSAABIAAEAACQAAIHB8CNkmrhekhJpM5Oig7Pn6DJ0AACAABIAAEgAAQOIYEbJJWIwPtr/Zns44hOHAJCAABIAAEgAAQAAKWBGySVt0yvqenp2VjOAIEgAAQAAJAAAgAASBAJWCTtNKpezw9Pfvl4tVFtUE/trGqpZqAMhAAAkAACAABIAAEgAAiYJO0MhoIIb+Guf2vp6MF8AEBIAAEgAAQAAJAAAhYErBJWk3r+r29vZrqy0cG2tVDHcvzI5aG4AgQAAJAAAgAASAABICATdKqq53n5eUFsIAAEAACQAAIAAEgAAToCdgkrYb6pEwmc2VhlN4WnAUCQAAIAAEgAASAwFtOwCZpNTuhZDKZmpHutxwWXD4QAAJAAAgAASAABOgJ2CStNla1TCZT3imgtwVngQAQAAJAAAgAASDwlhPYX1qtLarlnQImkzmgkLzlsODygQAQAAJAAAgAASBAT2AfabU8P4KWXMjP5Wyu6ehtwVkgAASAABAAAkAACLzlBPaRVhur2jFV58L00FuOCS4fCAABIAAEgAAQAAK2ENhHWtliAuoAASAABIAAEAACQAAIIAIgrQj4KAABIAAEgAAQAAJAwF4EQFqBtAICQAAIAAEgAASAgN0IgLSyG0p7qV2wAwSAABAAAkAACLy+BEBagbQCAkAACAABIAAEgIDdCIC0shvK11dfg+dAAAgAASAABICAvQiAtAJpBQSAABAAAkAACAABuxEAaWU3lPZSu2AHCAABIAAEgAAQeH0J/H8ZUB+a50NchQAAAABJRU5ErkJggg==;" vertex="1" parent="1">
          <mxGeometry x="410" y="700" width="810" height="146.17" as="geometry" />
        </mxCell>
        <mxCell id="RoKykkbpF6MTI8URKZML-278" value="" style="rounded=0;whiteSpace=wrap;html=1;fillColor=#fff2cc;strokeColor=none;" vertex="1" parent="1">
          <mxGeometry x="1220" y="700" width="450" height="140" as="geometry" />
        </mxCell>
        <mxCell id="RoKykkbpF6MTI8URKZML-279" value="&lt;font style=&quot;font-size: 22px;&quot;&gt;&lt;b style=&quot;&quot;&gt;函数本质&lt;/b&gt;&lt;/font&gt;" style="text;html=1;align=center;verticalAlign=middle;whiteSpace=wrap;rounded=0;" vertex="1" parent="1">
          <mxGeometry x="1236" y="710" width="104" height="30" as="geometry" />
        </mxCell>
        <mxCell id="RoKykkbpF6MTI8URKZML-280" value="&lt;font style=&quot;font-size: 20px;&quot;&gt;检查drv所在的bus有无定义match函数&lt;/font&gt;" style="text;html=1;align=center;verticalAlign=middle;whiteSpace=wrap;rounded=0;" vertex="1" parent="1">
          <mxGeometry x="1236" y="755" width="354" height="30" as="geometry" />
        </mxCell>
        <mxCell id="RoKykkbpF6MTI8URKZML-281" value="&lt;font style=&quot;font-size: 20px;&quot;&gt;有的话就调用，没有的话默认匹配上！&lt;/font&gt;" style="text;html=1;align=center;verticalAlign=middle;whiteSpace=wrap;rounded=0;" vertex="1" parent="1">
          <mxGeometry x="1236" y="800" width="354" height="30" as="geometry" />
        </mxCell>
        <mxCell id="RoKykkbpF6MTI8URKZML-283" value="" style="rounded=0;whiteSpace=wrap;html=1;fillColor=#d5e8d4;strokeColor=#82b366;" vertex="1" parent="1">
          <mxGeometry x="380" y="880" width="1300" height="450" as="geometry" />
        </mxCell>
        <mxCell id="RoKykkbpF6MTI8URKZML-284" style="edgeStyle=orthogonalEdgeStyle;rounded=0;orthogonalLoop=1;jettySize=auto;html=1;entryX=0;entryY=0.5;entryDx=0;entryDy=0;" edge="1" source="RoKykkbpF6MTI8URKZML-287" target="RoKykkbpF6MTI8URKZML-297" parent="1">
          <mxGeometry relative="1" as="geometry" />
        </mxCell>
        <mxCell id="RoKykkbpF6MTI8URKZML-285" style="edgeStyle=orthogonalEdgeStyle;rounded=0;orthogonalLoop=1;jettySize=auto;html=1;entryX=0;entryY=0.5;entryDx=0;entryDy=0;" edge="1" source="RoKykkbpF6MTI8URKZML-287" target="RoKykkbpF6MTI8URKZML-290" parent="1">
          <mxGeometry relative="1" as="geometry" />
        </mxCell>
        <mxCell id="RoKykkbpF6MTI8URKZML-286" style="edgeStyle=orthogonalEdgeStyle;rounded=0;orthogonalLoop=1;jettySize=auto;html=1;entryX=0;entryY=0.5;entryDx=0;entryDy=0;" edge="1" source="RoKykkbpF6MTI8URKZML-287" target="RoKykkbpF6MTI8URKZML-294" parent="1">
          <mxGeometry relative="1" as="geometry" />
        </mxCell>
        <mxCell id="RoKykkbpF6MTI8URKZML-287" value="&lt;h2&gt;driver_register&lt;/h2&gt;" style="rounded=1;whiteSpace=wrap;html=1;fillColor=#dae8fc;strokeColor=#6c8ebf;fontStyle=1" vertex="1" parent="1">
          <mxGeometry x="390" y="970" width="160" height="40" as="geometry" />
        </mxCell>
        <mxCell id="RoKykkbpF6MTI8URKZML-288" value="&lt;h1&gt;&lt;b style=&quot;&quot;&gt;&lt;font style=&quot;font-size: 26px;&quot;&gt;驱动注册流程及匹配机制&lt;/font&gt;&lt;/b&gt;&lt;/h1&gt;" style="rounded=0;whiteSpace=wrap;html=1;" vertex="1" parent="1">
          <mxGeometry x="390" y="915" width="1250" height="39" as="geometry" />
        </mxCell>
        <mxCell id="RoKykkbpF6MTI8URKZML-289" style="edgeStyle=orthogonalEdgeStyle;rounded=0;orthogonalLoop=1;jettySize=auto;html=1;" edge="1" source="RoKykkbpF6MTI8URKZML-290" target="RoKykkbpF6MTI8URKZML-298" parent="1">
          <mxGeometry relative="1" as="geometry" />
        </mxCell>
        <mxCell id="RoKykkbpF6MTI8URKZML-290" value="&lt;h2&gt;driver_find&lt;/h2&gt;" style="rounded=1;whiteSpace=wrap;html=1;fillColor=#dae8fc;strokeColor=#6c8ebf;fontStyle=1" vertex="1" parent="1">
          <mxGeometry x="490" y="1020" width="160" height="40" as="geometry" />
        </mxCell>
        <mxCell id="RoKykkbpF6MTI8URKZML-291" style="edgeStyle=orthogonalEdgeStyle;rounded=0;orthogonalLoop=1;jettySize=auto;html=1;entryX=0;entryY=0.5;entryDx=0;entryDy=0;" edge="1" source="RoKykkbpF6MTI8URKZML-294" target="RoKykkbpF6MTI8URKZML-299" parent="1">
          <mxGeometry relative="1" as="geometry" />
        </mxCell>
        <mxCell id="RoKykkbpF6MTI8URKZML-293" style="edgeStyle=orthogonalEdgeStyle;rounded=0;orthogonalLoop=1;jettySize=auto;html=1;entryX=0;entryY=0.5;entryDx=0;entryDy=0;" edge="1" source="RoKykkbpF6MTI8URKZML-294" target="RoKykkbpF6MTI8URKZML-302" parent="1">
          <mxGeometry relative="1" as="geometry" />
        </mxCell>
        <mxCell id="RoKykkbpF6MTI8URKZML-294" value="&lt;h2&gt;bus_add_driver&lt;/h2&gt;" style="rounded=1;whiteSpace=wrap;html=1;fillColor=#dae8fc;strokeColor=#6c8ebf;fontStyle=1" vertex="1" parent="1">
          <mxGeometry x="490" y="1070" width="160" height="40" as="geometry" />
        </mxCell>
        <mxCell id="RoKykkbpF6MTI8URKZML-297" value="&lt;h2&gt;&lt;font style=&quot;font-size: 20px;&quot;&gt;驱动注册&lt;/font&gt;&lt;/h2&gt;" style="rounded=1;whiteSpace=wrap;html=1;fillColor=#fff2cc;strokeColor=#d6b656;fontStyle=1" vertex="1" parent="1">
          <mxGeometry x="1440" y="970" width="200" height="40" as="geometry" />
        </mxCell>
        <mxCell id="RoKykkbpF6MTI8URKZML-298" value="&lt;h2&gt;&lt;span style=&quot;font-size: 20px;&quot;&gt;检查驱动是否被注册&lt;/span&gt;&lt;/h2&gt;" style="rounded=1;whiteSpace=wrap;html=1;fillColor=#fff2cc;strokeColor=#d6b656;fontStyle=1" vertex="1" parent="1">
          <mxGeometry x="1440" y="1020" width="200" height="40" as="geometry" />
        </mxCell>
        <mxCell id="RoKykkbpF6MTI8URKZML-299" value="&lt;h2&gt;&lt;span style=&quot;font-size: 20px;&quot;&gt;驱动与总线相关联&lt;/span&gt;&lt;/h2&gt;" style="rounded=1;whiteSpace=wrap;html=1;fillColor=#fff2cc;strokeColor=#d6b656;fontStyle=1" vertex="1" parent="1">
          <mxGeometry x="1440" y="1070" width="200" height="40" as="geometry" />
        </mxCell>
        <mxCell id="RoKykkbpF6MTI8URKZML-301" style="edgeStyle=orthogonalEdgeStyle;rounded=0;orthogonalLoop=1;jettySize=auto;html=1;entryX=0;entryY=0.5;entryDx=0;entryDy=0;" edge="1" source="RoKykkbpF6MTI8URKZML-302" target="RoKykkbpF6MTI8URKZML-304" parent="1">
          <mxGeometry relative="1" as="geometry" />
        </mxCell>
        <mxCell id="RoKykkbpF6MTI8URKZML-324" style="edgeStyle=orthogonalEdgeStyle;rounded=0;orthogonalLoop=1;jettySize=auto;html=1;" edge="1" parent="1" source="RoKykkbpF6MTI8URKZML-302" target="RoKykkbpF6MTI8URKZML-312">
          <mxGeometry relative="1" as="geometry" />
        </mxCell>
        <mxCell id="RoKykkbpF6MTI8URKZML-302" value="&lt;h2&gt;driver_attach&lt;/h2&gt;" style="rounded=1;whiteSpace=wrap;html=1;fillColor=#dae8fc;strokeColor=#6c8ebf;fontStyle=1" vertex="1" parent="1">
          <mxGeometry x="590" y="1120" width="170" height="40" as="geometry" />
        </mxCell>
        <mxCell id="RoKykkbpF6MTI8URKZML-303" style="edgeStyle=orthogonalEdgeStyle;rounded=0;orthogonalLoop=1;jettySize=auto;html=1;entryX=0;entryY=0.5;entryDx=0;entryDy=0;" edge="1" source="RoKykkbpF6MTI8URKZML-304" target="RoKykkbpF6MTI8URKZML-306" parent="1">
          <mxGeometry relative="1" as="geometry" />
        </mxCell>
        <mxCell id="RoKykkbpF6MTI8URKZML-325" style="edgeStyle=orthogonalEdgeStyle;rounded=0;orthogonalLoop=1;jettySize=auto;html=1;entryX=0;entryY=0.5;entryDx=0;entryDy=0;" edge="1" parent="1" source="RoKykkbpF6MTI8URKZML-304" target="RoKykkbpF6MTI8URKZML-313">
          <mxGeometry relative="1" as="geometry" />
        </mxCell>
        <mxCell id="RoKykkbpF6MTI8URKZML-304" value="&lt;h2&gt;bus_for_each_dev&lt;/h2&gt;" style="rounded=1;whiteSpace=wrap;html=1;fillColor=#dae8fc;strokeColor=#6c8ebf;fontStyle=1" vertex="1" parent="1">
          <mxGeometry x="720" y="1170" width="190" height="40" as="geometry" />
        </mxCell>
        <mxCell id="RoKykkbpF6MTI8URKZML-305" style="edgeStyle=orthogonalEdgeStyle;rounded=0;orthogonalLoop=1;jettySize=auto;html=1;entryX=0;entryY=0.5;entryDx=0;entryDy=0;" edge="1" source="RoKykkbpF6MTI8URKZML-306" target="RoKykkbpF6MTI8URKZML-308" parent="1">
          <mxGeometry relative="1" as="geometry" />
        </mxCell>
        <mxCell id="RoKykkbpF6MTI8URKZML-327" style="edgeStyle=orthogonalEdgeStyle;rounded=0;orthogonalLoop=1;jettySize=auto;html=1;entryX=0;entryY=0.5;entryDx=0;entryDy=0;" edge="1" parent="1" source="RoKykkbpF6MTI8URKZML-306" target="RoKykkbpF6MTI8URKZML-314">
          <mxGeometry relative="1" as="geometry" />
        </mxCell>
        <mxCell id="RoKykkbpF6MTI8URKZML-306" value="&lt;h2&gt;__driver_attach&lt;/h2&gt;" style="rounded=1;whiteSpace=wrap;html=1;fillColor=#dae8fc;strokeColor=#6c8ebf;fontStyle=1" vertex="1" parent="1">
          <mxGeometry x="834" y="1220" width="180" height="40" as="geometry" />
        </mxCell>
        <mxCell id="RoKykkbpF6MTI8URKZML-328" style="edgeStyle=orthogonalEdgeStyle;rounded=0;orthogonalLoop=1;jettySize=auto;html=1;entryX=0;entryY=0.5;entryDx=0;entryDy=0;" edge="1" parent="1" source="RoKykkbpF6MTI8URKZML-308" target="RoKykkbpF6MTI8URKZML-315">
          <mxGeometry relative="1" as="geometry" />
        </mxCell>
        <mxCell id="RoKykkbpF6MTI8URKZML-308" value="&lt;h2&gt;driver_match_device&lt;/h2&gt;" style="rounded=1;whiteSpace=wrap;html=1;fillColor=#dae8fc;strokeColor=#6c8ebf;fontStyle=1" vertex="1" parent="1">
          <mxGeometry x="950" y="1270" width="190" height="40" as="geometry" />
        </mxCell>
        <mxCell id="RoKykkbpF6MTI8URKZML-312" value="&lt;h2&gt;&lt;span style=&quot;font-size: 20px;&quot;&gt;总线探测驱动&lt;/span&gt;&lt;/h2&gt;" style="rounded=1;whiteSpace=wrap;html=1;fillColor=#fff2cc;strokeColor=#d6b656;fontStyle=1" vertex="1" parent="1">
          <mxGeometry x="1440" y="1120" width="200" height="40" as="geometry" />
        </mxCell>
        <mxCell id="RoKykkbpF6MTI8URKZML-313" value="&lt;h2&gt;&lt;span style=&quot;font-size: 20px;&quot;&gt;&lt;font style=&quot;color: light-dark(rgb(255, 0, 0), rgb(255, 255, 255));&quot;&gt;遍历总线上的驱动&lt;/font&gt;&lt;/span&gt;&lt;/h2&gt;" style="rounded=1;whiteSpace=wrap;html=1;fillColor=#fff2cc;strokeColor=#d6b656;fontStyle=1" vertex="1" parent="1">
          <mxGeometry x="1440" y="1170" width="200" height="40" as="geometry" />
        </mxCell>
        <mxCell id="RoKykkbpF6MTI8URKZML-314" value="&lt;h2&gt;&lt;span style=&quot;font-size: 20px; font-weight: 400;&quot;&gt;驱动与设备绑定&lt;/span&gt;&lt;/h2&gt;" style="rounded=1;whiteSpace=wrap;html=1;fillColor=#fff2cc;strokeColor=#d6b656;fontStyle=1" vertex="1" parent="1">
          <mxGeometry x="1440" y="1220" width="200" height="40" as="geometry" />
        </mxCell>
        <mxCell id="RoKykkbpF6MTI8URKZML-315" value="&lt;h2&gt;&lt;span style=&quot;font-size: 20px;&quot;&gt;驱动匹配设备&lt;/span&gt;&lt;/h2&gt;" style="rounded=1;whiteSpace=wrap;html=1;fillColor=#fff2cc;strokeColor=#d6b656;fontStyle=1" vertex="1" parent="1">
          <mxGeometry x="1440" y="1270" width="200" height="40" as="geometry" />
        </mxCell>
        <mxCell id="RoKykkbpF6MTI8URKZML-323" value="&lt;font style=&quot;font-size: 37px;&quot;&gt;🌻Make By Dakkk&lt;/font&gt;" style="html=1;shadow=0;dashed=0;shape=mxgraph.bootstrap.rrect;rSize=5;strokeColor=#1CA5B8;strokeWidth=1;fillColor=none;fontColor=#1CA5B8;whiteSpace=wrap;align=center;verticalAlign=middle;spacingLeft=0;fontStyle=1;fontSize=16;spacing=5;" vertex="1" parent="1">
          <mxGeometry x="400" y="500" width="340" height="110" as="geometry" />
        </mxCell>
        <mxCell id="RoKykkbpF6MTI8URKZML-326" style="edgeStyle=orthogonalEdgeStyle;rounded=0;orthogonalLoop=1;jettySize=auto;html=1;exitX=0.5;exitY=1;exitDx=0;exitDy=0;" edge="1" parent="1" source="RoKykkbpF6MTI8URKZML-283" target="RoKykkbpF6MTI8URKZML-283">
          <mxGeometry relative="1" as="geometry" />
        </mxCell>
        <mxCell id="RoKykkbpF6MTI8URKZML-329" style="edgeStyle=orthogonalEdgeStyle;rounded=0;orthogonalLoop=1;jettySize=auto;html=1;entryX=0.784;entryY=1.026;entryDx=0;entryDy=0;entryPerimeter=0;shape=flexArrow;" edge="1" parent="1" source="RoKykkbpF6MTI8URKZML-308" target="RoKykkbpF6MTI8URKZML-277">
          <mxGeometry relative="1" as="geometry" />
        </mxCell>
      </root>
    </mxGraphModel>
  </diagram>
</mxfile>
